<?xml version="1.0" encoding="UTF-8"?>
<svg width="28px" height="28px" viewBox="0 0 28 28" version="1.1" xmlns="http://www.w3.org/2000/svg" xmlns:xlink="http://www.w3.org/1999/xlink">
    <title>facebook</title>
    <g id="Page-1" stroke="none" stroke-width="1" fill="none" fill-rule="evenodd">
        <g id="Homepage-sutrra-2" transform="translate(-1445.000000, -2674.000000)" fill="#FFFFFF" fill-rule="nonzero">
            <g id="Group-11" transform="translate(0.000000, 2524.000000)">
                <g id="Group-10" transform="translate(1313.000000, 120.000000)">
                    <g id="facebook" transform="translate(132.000000, 30.000000)">
                        <path d="M0,2 L0,25.9834211 C-1.82683884e-15,27.0879906 0.8954305,27.9834211 2,27.9834211 L14.9028772,27.9834211 L14.9028772,27.9834211 L14.9028772,17.1740088 L11.259807,17.1740088 L11.259807,12.761307 L14.9028772,12.761307 L14.9028772,9.05542105 C14.9028772,6.36023684 17.0877368,4.17537719 19.7829211,4.17537719 L23.5914737,4.17537719 L23.5914737,8.14339474 L20.8662632,8.14339474 C20.0098684,8.14339474 19.3155789,8.83768421 19.3155789,9.69407895 L19.3155789,12.7613684 L23.5230088,12.7613684 L22.9415175,17.1740702 L19.3155789,17.1740702 L19.3155789,27.9834211 L25.9834211,27.9834211 C27.0879906,27.9834211 27.9834211,27.0879906 27.9834211,25.9834211 L27.9834211,2 C27.9834211,0.8954305 27.0879906,-2.02906125e-16 25.9834211,0 L2,0 C0.8954305,2.02906125e-16 -1.3527075e-16,0.8954305 0,2 Z" id="Path"></path>
                    </g>
                </g>
            </g>
        </g>
    </g>
</svg>