<?xml version="1.0" encoding="UTF-8"?>
<svg width="242px" height="300px" viewBox="0 0 242 300" version="1.1" xmlns="http://www.w3.org/2000/svg" xmlns:xlink="http://www.w3.org/1999/xlink">
    <title>Path</title>
    <g id="Page-1" stroke="none" stroke-width="1" fill="none" fill-rule="evenodd">
        <g id="Homepage-sutrra-2" transform="translate(-1393.000000, -1918.000000)" fill="#E2DAD0" fill-rule="nonzero">
            <g id="Group-12" transform="translate(0.000000, 1347.000000)">
                <path d="M1608.89876,572.891094 L1613.73479,663.365194 L1603.53993,663.365194 C1595.99791,641.048695 1582.43172,621.231509 1564.32892,606.086627 C1545.90381,591.075657 1522.78042,582.968904 1498.97725,583.175201 C1482.95952,582.866392 1467.15505,586.869109 1453.23107,594.761093 C1438.67402,601.559074 1429.359,616.109226 1429.31236,632.12234 C1429.31236,653.818767 1448.43862,666.836623 1486.69113,671.175908 L1510.74055,673.388944 C1539.47308,675.250167 1567.654,682.123906 1593.99858,693.696799 C1620.07263,705.727979 1636.24305,732.27889 1634.90873,760.868937 C1636.17302,791.009563 1624.25291,820.215288 1602.23289,840.928752 C1579.43256,861.277992 1549.56506,871.972176 1518.97486,870.739643 C1505.1049,869.946445 1491.37529,867.543582 1478.06471,863.579822 C1464.75385,859.617218 1451.02438,857.214378 1437.15456,856.420001 C1430.39021,856.362827 1423.71111,857.925445 1417.67976,860.976251 C1414.97856,862.885536 1410.88319,866.226786 1405.39365,871 L1397.15934,871 L1395.8523,763.34233 L1405.39365,763.34233 C1433.62557,827.737325 1473.09798,859.934822 1523.81088,859.934822 C1540.44325,860.329843 1556.81914,855.799251 1570.86409,846.916966 C1585.45224,838.530242 1594.35059,822.945972 1594.12928,806.171076 C1595.01051,791.68087 1586.48058,778.255588 1572.95534,772.845365 C1557.88989,767.975898 1542.32786,764.788667 1526.55565,763.34233 C1498.58514,759.784116 1481.63727,757.310723 1475.71205,755.922152 C1454.54545,751.907264 1434.51595,743.332271 1417.02625,730.797689 C1400.72031,716.377949 1391.91303,695.334921 1393.10753,673.649301 C1392.15509,645.572423 1403.62267,618.493849 1424.47634,599.577699 C1445.90183,580.282005 1474.03054,570.056251 1502.89835,571.068594 C1516.21391,571.845598 1529.38304,574.250245 1542.10935,578.228415 C1554.83439,582.211725 1568.00416,584.616489 1581.32036,585.388236 C1589.36532,586.032063 1596.87226,581.312665 1599.74953,573.802344 L1608.89876,572.891094 Z" id="Path"></path>
            </g>
        </g>
    </g>
</svg>