<?xml version="1.0" encoding="UTF-8"?>
<svg width="92px" height="114px" viewBox="0 0 92 114" version="1.1" xmlns="http://www.w3.org/2000/svg" xmlns:xlink="http://www.w3.org/1999/xlink">
    <title>Path</title>
    <g id="Page-1" stroke="none" stroke-width="1" fill="none" fill-rule="evenodd">
        <g id="Homepage-sutrra-2" transform="translate(-113.000000, -583.000000)" fill="#C39579" fill-rule="nonzero">
            <path d="M195.077216,583.718616 L196.915704,618.098774 L193.039972,618.098774 C190.172757,609.618504 185.015364,602.087973 178.133309,596.332918 C171.128723,590.628749 162.338013,587.548183 153.28887,587.626576 C147.199488,587.509229 141.191174,589.030261 135.897764,592.029215 C130.363679,594.612448 126.82243,600.141506 126.804699,606.226489 C126.804699,614.471131 134.075838,619.417917 148.618116,621.066845 L157.760869,621.907799 C168.683982,622.615063 179.397389,625.227084 189.412684,629.624784 C199.325133,634.196632 205.472565,644.285978 204.965302,655.150196 C205.445941,666.603634 200.91433,677.701809 192.543083,685.572926 C183.875189,693.305637 172.520602,697.369427 160.891269,696.901064 C155.618392,696.599649 150.398872,695.686561 145.33865,694.180332 C140.278324,692.674543 135.058856,691.761464 129.786032,691.4596 C127.21446,691.437874 124.675297,692.031669 122.382389,693.190975 C121.355486,693.916504 119.798568,695.186179 117.711635,697 L114.581235,697 L114.084347,656.090085 L117.711635,656.090085 C128.444432,680.560183 143.450473,692.795232 162.729757,692.795232 C169.052807,692.94534 175.278349,691.223715 180.617753,687.848447 C186.16366,684.661492 189.546504,678.739469 189.462373,672.365009 C189.797384,666.85873 186.554599,661.757123 181.412775,659.701239 C175.685412,657.850841 169.769268,656.639694 163.773223,656.090085 C153.139804,654.737964 146.696813,653.798075 144.44425,653.270418 C136.397442,651.74476 128.782922,648.486263 122.133945,643.723122 C115.934995,638.243621 112.586771,630.24727 113.04088,622.006734 C112.678793,611.337521 117.038371,601.047663 124.966211,593.859526 C133.11144,586.527162 143.804997,582.641375 154.779537,583.026066 C159.841651,583.321327 164.848097,584.235093 169.6862,585.746798 C174.523817,587.260456 179.530507,588.174266 184.592863,588.46753 C187.651278,588.712184 190.505156,586.918813 191.598994,584.064891 L195.077216,583.718616 Z" id="Path"></path>
        </g>
    </g>
</svg>