<?xml version="1.0" encoding="UTF-8"?>
<svg width="28px" height="28px" viewBox="0 0 28 28" version="1.1" xmlns="http://www.w3.org/2000/svg" xmlns:xlink="http://www.w3.org/1999/xlink">
    <title>instagram copy</title>
    <g id="Page-1" stroke="none" stroke-width="1" fill="none" fill-rule="evenodd">
        <g id="Homepage-sutrra-2" transform="translate(-1397.000000, -2674.000000)" fill="#FFFFFF" fill-rule="nonzero">
            <g id="Group-11" transform="translate(0.000000, 2524.000000)">
                <g id="Group-10" transform="translate(1313.000000, 120.000000)">
                    <g id="instagram-copy" transform="translate(84.000000, 30.000000)">
                        <path d="M20.2668457,9.25885012 C20.138031,8.90979004 19.9325256,8.59384154 19.6654968,8.33450319 C19.4061585,8.06747435 19.0904236,7.86196901 18.7411499,7.7331543 C18.4578857,7.62313841 18.0323486,7.4921875 17.2485657,7.45651244 C16.4006958,7.41784668 16.1464844,7.40951537 14,7.40951537 C11.853302,7.40951537 11.5990906,7.41763307 10.7514343,7.45629883 C9.96765137,7.4921875 9.54190065,7.62313841 9.25885013,7.7331543 C8.90957643,7.86196901 8.59362793,8.06747435 8.33450319,8.33450319 C8.06747435,8.59384154 7.86196901,8.90957643 7.73294069,9.25885012 C7.6229248,9.54211426 7.49197389,9.96786498 7.45629883,10.7516479 C7.41763307,11.5993042 7.40930176,11.8535156 7.40930176,14.0002136 C7.40930176,16.146698 7.41763307,16.4009094 7.45629883,17.2487793 C7.49197389,18.0325622 7.6229248,18.4580994 7.73294069,18.7413635 C7.86196901,19.0906372 8.06726074,19.4063721 8.33428958,19.6657104 C8.59362793,19.9327393 8.90936277,20.1382447 9.25863646,20.2670593 C9.54190065,20.3772888 9.96765137,20.5082397 10.7514343,20.5439148 C11.5990906,20.5825806 11.8530884,20.5906982 13.9997864,20.5906982 C16.146698,20.5906982 16.4009094,20.5825806 17.2483521,20.5439148 C18.032135,20.5082397 18.4578857,20.3772888 18.7411499,20.2670593 C19.4422607,19.9966126 19.996399,19.4424744 20.2668457,18.7413635 C20.3768616,18.4580994 20.5078125,18.0325622 20.5437012,17.2487793 C20.5823669,16.4009094 20.5904846,16.146698 20.5904846,14.0002136 C20.5904846,11.8535156 20.5823669,11.5993042 20.5437012,10.7516479 C20.5080261,9.96786498 20.3770752,9.54211426 20.2668457,9.25885012 L20.2668457,9.25885012 Z M14,18.1280518 C11.7200012,18.1280518 9.87173463,16.2799988 9.87173463,14 C9.87173463,11.7200012 11.7200012,9.87194824 14,9.87194824 C16.2797852,9.87194824 18.1280518,11.7200012 18.1280518,14 C18.1280518,16.2799988 16.2797852,18.1280518 14,18.1280518 Z M18.2912598,10.6734619 C17.7584839,10.6734619 17.3265381,10.2415161 17.3265381,9.70874023 C17.3265381,9.17596433 17.7584839,8.74401855 18.2912598,8.74401855 C18.8240357,8.74401855 19.2559814,9.17596433 19.2559814,9.70874023 C19.2557678,10.2415161 18.8240357,10.6734619 18.2912598,10.6734619 Z" id="Shape"></path>
                        <path d="M16.6796875,14 C16.6796875,15.4799805 15.4799805,16.6796875 14,16.6796875 C12.5200195,16.6796875 11.3203125,15.4799805 11.3203125,14 C11.3203125,12.5200195 12.5200195,11.3203125 14,11.3203125 C15.4799805,11.3203125 16.6796875,12.5200195 16.6796875,14 Z" id="Path"></path>
                        <path d="M25.9806214,-1.55431223e-15 L2.01937865,-1.55431223e-15 C0.904052734,-1.55431223e-15 0,0.904052734 0,2.01937865 L0,25.9806214 C0,27.0959473 0.904052734,28 2.01937865,28 L25.9806214,28 C27.0959473,28 28,27.0959473 28,25.9806214 L28,2.01937865 C28,0.904052734 27.0959473,-1.55431223e-15 25.9806214,-1.55431223e-15 Z M21.9905701,17.3143616 C21.9516907,18.1701355 21.8156128,18.7543945 21.6169434,19.2658081 C21.1993103,20.3456726 20.3456726,21.1993103 19.2658081,21.6169434 C18.7546081,21.8156128 18.1701355,21.9514771 17.3145752,21.9905701 C16.4573059,22.0296631 16.1834411,22.0390625 14.0002136,22.0390625 C11.8167725,22.0390625 11.5431214,22.0296631 10.6856384,21.9905701 C9.83007812,21.9514771 9.24560547,21.8156128 8.73440553,21.6169434 C8.19778444,21.4150696 7.7120056,21.0986939 7.31039427,20.6896057 C6.90151979,20.288208 6.58514402,19.8022156 6.38327025,19.2658081 C6.18460084,18.7546081 6.04852292,18.1701355 6.00964355,17.3145752 C5.9701233,16.4570923 5.9609375,16.1832275 5.9609375,14 C5.9609375,11.8167725 5.9701233,11.5429077 6.00942995,10.6856384 C6.04830931,9.82986452 6.18417357,9.24560547 6.38284303,8.73419192 C6.5847168,8.19778444 6.90130612,7.71179199 7.31039427,7.31039427 C7.71179199,6.90130613 8.19778444,6.58493041 8.73419192,6.38305664 C9.24560547,6.18438723 9.82986452,6.04852292 10.6856384,6.00942995 C11.5429077,5.97033691 11.8167725,5.9609375 14,5.9609375 C16.1832275,5.9609375 16.4570923,5.97033691 17.3143616,6.00964355 C18.1701355,6.04852292 18.7543945,6.18438723 19.2658081,6.38284303 C19.8022156,6.5847168 20.288208,6.90130613 20.6898193,7.31039427 C21.0986939,7.7120056 21.4152832,8.19778444 21.6169434,8.73419192 C21.8158264,9.24560547 21.9516907,9.82986452 21.9907837,10.6856384 C22.0298767,11.5429077 22.0390625,11.8167725 22.0390625,14 C22.0390625,16.1832275 22.0298767,16.4570923 21.9905701,17.3143616 L21.9905701,17.3143616 Z" id="Shape"></path>
                    </g>
                </g>
            </g>
        </g>
    </g>
</svg>