<?xml version="1.0" encoding="UTF-8"?>
<svg width="149px" height="40px" viewBox="0 0 149 40" version="1.1" xmlns="http://www.w3.org/2000/svg" xmlns:xlink="http://www.w3.org/1999/xlink">
    <title>logo</title>
    <g id="Page-1" stroke="none" stroke-width="1" fill="none" fill-rule="evenodd">
        <g id="Homepage-sutrra-2" transform="translate(-360.000000, -30.000000)" fill="#262423" fill-rule="nonzero">
            <g id="logo" transform="translate(360.000000, 30.000000)">
                <path d="M17.1291581,9.74624462 L17.5128426,16.7429084 L16.7039941,16.7429084 C16.1056189,15.017099 15.0292933,13.48457 13.5930384,12.3133659 C12.1312118,11.1525174 10.2966287,10.5255952 8.4081121,10.5415488 C7.13728452,10.5176677 5.88337551,10.8272111 4.77866371,11.4375245 C3.62372428,11.963235 2.88468107,13.0884468 2.88098069,14.3267943 C2.88098069,16.0046513 4.39843578,17.0113655 7.43334596,17.3469369 L9.34139883,17.5180783 C11.621005,17.6620129 13.8568464,18.193582 15.9469949,19.0885525 C18.0156799,20.0189637 19.2986223,22.0722342 19.1927587,24.2831978 C19.2930659,26.6140729 18.3473385,28.8726489 16.6002956,30.4744902 C14.7913438,32.0481647 12.4216909,32.8751816 9.99469954,32.7798657 C8.89427311,32.7185251 7.80498207,32.5327036 6.74893569,32.2261729 C5.69286754,31.9197315 4.60358736,31.7339119 3.50317185,31.6724801 C2.96649608,31.6680586 2.43658377,31.788901 1.95806382,32.0248301 C1.74375353,32.1724815 1.41883148,32.4308715 0.983297677,32.8 L0.329996967,32.8 L0.226298442,24.4744735 L0.983297677,24.4744735 C3.22318583,29.4543531 6.3548813,31.9442929 10.3783841,31.9442929 C11.6979771,31.9748412 12.9972207,31.6244754 14.111531,30.9375787 C15.2689378,30.2890054 15.9749225,29.0838218 15.9573648,27.7865632 C16.0272802,26.6659872 15.350525,25.6277655 14.2774486,25.2093749 C13.0821729,24.8328028 11.8474994,24.5863236 10.596151,24.4744735 C8.37700254,24.1993049 7.03237833,24.0080292 6.56227835,23.9006464 C4.88294443,23.5901618 3.29382721,22.9270289 1.90621455,21.957688 C0.61252078,20.8425614 -0.0862390382,19.2152339 0.00853153811,17.5382126 C-0.0670345436,15.366934 0.842790466,13.2728577 2.49729615,11.8100087 C4.19717017,10.3178084 6.42886896,9.52701675 8.71920768,9.60530463 C9.77564886,9.66539294 10.8204724,9.85135228 11.8301634,10.1589974 C12.8397531,10.4670401 13.8846276,10.6530085 14.9411192,10.7126903 C15.5793972,10.7624795 16.1749892,10.3975127 16.4032684,9.81671461 L17.1291581,9.74624462 Z" id="Path"></path>
                <path d="M40.4560136,28.0956698 C39.1113231,31.2315498 36.3009199,32.7994897 32.0248041,32.7994897 C30.4903325,32.8151017 28.9736809,32.4722625 27.5974106,31.798677 C26.1851604,31.2034175 25.0682,30.0769967 24.4911755,28.6661331 C24.0517568,27.0359535 23.8747631,25.3470925 23.9667462,23.6620693 L23.9667462,11.2619994 L20.8,11.2619994 L20.8,10.3212354 L26.0140375,10.3212354 C28.5084384,10.3212354 30.1052584,9.81415692 30.8044974,8.8 L30.8044974,26.5444101 C30.734095,27.6798891 30.9130284,28.8169962 31.3289267,29.8771165 C31.9262829,30.8802774 33.054578,31.4498681 34.2233731,31.3383031 C35.9085739,31.3449674 37.510622,30.6123369 38.6003407,29.3366776 C39.7827148,28.1067205 40.4434693,26.4728294 40.4459284,24.7729715 L40.4459284,11.2619994 L37.2892675,11.2619994 L37.2892675,10.3212354 L42.452879,10.3212354 C44.94728,10.3212354 46.5440999,9.81415692 47.243339,8.8 L47.243339,31.3383031 L50.4,31.3383031 L50.4,32.2790671 L40.4560136,32.2790671 L40.4560136,28.0956698 Z" id="Path"></path>
                <path d="M65.837037,10.6342028 L65.837037,11.5953711 L61.2444444,11.5953711 L61.2444444,28.3237901 C61.2444444,30.4574475 61.8633745,31.5242762 63.1012346,31.5242762 C63.891358,31.5242762 64.8032922,30.8425965 65.837037,29.4792372 L66.4,29.8575694 C65.2606966,32.1586024 62.971639,33.6042192 60.4740741,33.6 C56.5893004,33.6 54.6469136,31.4322494 54.6469136,27.0967667 L54.6469136,11.5953711 L52,11.5953711 L52,10.6853288 C54.5107721,10.6819699 56.8460908,9.35162473 58.1925926,7.1576365 C59.7220481,5.11005361 60.5397788,2.58827431 60.5135802,0 L61.2444444,0 L61.2444444,10.6342028 L65.837037,10.6342028 Z" id="Path"></path>
                <path d="M77.9732324,13.7207161 C78.9418386,11.1629518 81.3876222,9.49413057 84.0904175,9.54680307 C86.6947637,9.54680307 87.9969367,10.8835465 87.9969367,13.5570332 C88.0374696,14.5834674 87.6744189,15.5842516 86.9875002,16.3396419 C86.2751674,17.104635 85.2684094,17.5157463 84.2317386,17.4649616 C83.3321943,17.4879208 82.4669548,17.1147801 81.8595629,16.4419437 C81.2360305,15.7783195 80.8951877,14.8926994 80.9106926,13.9764706 C80.8736461,13.1261881 81.154866,12.2931006 81.6980531,11.6439898 C81.7399345,11.5639089 81.7944957,11.4913339 81.8595629,11.429156 L81.9605066,11.3268542 C79.2686759,12.0702472 77.9227606,14.8767263 77.9227606,19.7462916 L77.9227606,31.8383632 L81.9605066,31.8383632 L81.9605066,32.8 L68,32.8 L68,31.8383632 L71.1595362,31.8383632 L71.1595362,11.316624 L68,11.316624 L68,10.3549872 L73.1279373,10.3549872 C75.5573145,10.3549872 77.1555889,9.83665814 77.9227606,8.8 L77.9732324,13.7207161 Z" id="Path"></path>
                <path d="M98.7732324,13.7207161 C99.7418386,11.1629518 102.187622,9.49413057 104.890418,9.54680307 C107.494764,9.54680307 108.796937,10.8835465 108.796937,13.5570332 C108.83747,14.5834674 108.474419,15.5842516 107.7875,16.3396419 C107.091623,17.0854349 106.11478,17.4948277 105.102399,17.4649616 C104.202855,17.4879208 103.337615,17.1147801 102.730223,16.4419437 C102.106691,15.7783195 101.765848,14.8926994 101.781353,13.9764706 C101.744307,13.1261881 102.025527,12.2931006 102.568714,11.6439898 C102.610595,11.5639089 102.665156,11.4913339 102.730223,11.429156 L102.831167,11.3268542 C100.139336,12.0702472 98.7934212,14.8767263 98.7934212,19.7462916 L98.7934212,31.8383632 L102.831167,31.8383632 L102.831167,32.8 L88.8,32.8 L88.8,31.8383632 L91.9595362,31.8383632 L91.9595362,11.316624 L88.8,11.316624 L88.8,10.3549872 L93.9683148,10.3549872 C96.3976919,10.3549872 97.9959664,9.83665814 98.7631381,8.8 L98.7732324,13.7207161 Z" id="Path"></path>
                <path d="M136.8,28.5862279 C136.411508,31.9178629 134.592961,33.5836804 131.344361,33.5836804 C129.234764,33.7622327 127.273379,32.4606059 126.571933,30.4165706 C125.13853,32.5279772 122.740594,33.5836804 119.378125,33.5836804 C117.289678,33.6640139 115.215477,33.2005269 113.349795,32.2366305 C111.460686,31.2702344 110.306413,29.2542948 110.405961,27.0952183 C110.405961,23.2288764 113.450267,20.9015305 119.538881,20.1131807 C121.538707,19.858933 123.552015,19.7318676 125.567211,19.7327162 L126.411177,19.7327162 L126.411177,16.0925964 C126.377687,14.0360315 126.009289,12.6204294 125.305984,11.8457899 C124.602678,11.0711505 123.263049,10.6701204 121.287097,10.6426995 C119.774461,10.6045477 118.269174,10.8700455 116.856274,11.4241942 C116.29363,11.6641267 116.012308,11.958901 116.012308,12.308517 L116.012308,12.3599312 C117.834203,13.3607927 118.745151,14.3890751 118.745151,15.4447784 C118.767525,16.2915606 118.448684,17.1105005 117.863424,17.7094848 C117.278164,18.308469 116.477988,18.634787 115.650608,18.6118883 C114.742822,18.6555945 113.864226,18.2777797 113.25937,17.5836059 C112.667148,16.8756621 112.358476,15.9646647 112.39531,15.0334655 C112.39531,13.0660184 113.567485,11.5990022 115.911836,10.6324167 C117.840619,9.90627555 119.885532,9.55746464 121.940166,9.60413426 C123.900371,9.60381657 125.848931,9.91249227 127.717316,10.5193056 C130.168837,11.3076555 131.70941,12.4353385 132.339036,13.9023548 C132.742551,15.0730403 132.91999,16.3128097 132.861491,17.5527574 L132.861491,28.4833996 C132.861491,30.3068871 133.33371,31.2186309 134.278148,31.2186309 C135.222587,31.2186309 135.798627,30.2863215 136.00627,28.4217027 L136.8,28.5862279 Z M126.393031,20.5655172 C124.684782,20.6397595 123.430287,20.7106271 122.629546,20.77812 C121.379001,20.8177052 120.150932,21.1247895 119.026209,21.6791508 C117.87848,22.3540803 117.304615,23.9232912 117.304615,26.3867837 C117.304615,30.0921463 118.682558,31.9448276 121.438443,31.9448276 C124.774866,31.9448276 126.443077,30.1292674 126.443077,26.498147 L126.393031,20.5655172 Z" id="Shape"></path>
                <rect id="Rectangle" x="109.6" y="38.4" width="39.2" height="1.6"></rect>
            </g>
        </g>
    </g>
</svg>